<?xml version="1.0" encoding="UTF-8"?>
<svg id="Layer_1" data-name="Layer 1" xmlns="http://www.w3.org/2000/svg" viewBox="0 0 334.33 439.03">
  <path d="M150.44,390.92c-3.29-6.3-6.98-12.34-9.73-18.79-8.15-19.14-9.57-38.93-4.49-59.12.51-2.03.24-3.45-.99-5.18-11.99-16.84-19.37-35.55-22.42-55.98-4.2-28.18.45-55.23,10.44-81.59.29-.76.56-1.53.84-2.29.03-.08,0-.18,0-.19-4.13.28-8.27.88-12.38.78-8.4-.19-15.96-2.94-22.59-8.23-5.33-4.24-7.48-9.55-6.18-16.3,1.37-7.1,4.52-13.21,9.94-18.02,1.27-1.12,1.58-2.17,1.34-3.76-3.2-21.27,2.99-39.61,17.51-55.24,2.32-2.5,3.26-4.73,2.35-8.32-4.51-17.95-4.78-36.26-3.94-54.62.05-1.1.42-2.19.8-4.09,1.2,1.4,1.9,2.16,2.54,2.96,10.57,13.28,22.32,25.31,36.32,35.04,4.94,3.43,9.67,7.34,16.68,4.92.07,1.49.16,2.44.16,3.39-.03,13.26-.08,26.52-.11,39.79,0,1.39.04,2.43-1.77,3.09-12.69,4.61-20.67,16.27-19.84,30.12.72,11.95,9.94,23.63,22.18,27.42,17.63,5.46,35.43-3.94,40.21-21.24,3.79-13.72-3.86-29.04-17.64-35.27-1.15-.52-2.34-.95-3.68-1.5v-42.56c7.77,2.07,14.88,5.37,21.25,10.09,19.43,14.38,28.38,33.68,26.49,57.8-.6,7.64-2.6,15.07-6.37,21.77-4.75,8.44-6.16,17.62-6.47,26.98-.59,18.04,5.69,33.98,15.99,48.47,11.15,15.69,25.7,27.5,42.6,36.49,17.85,9.49,32.68,22.14,42.74,39.97,19.3,34.2,15.27,77.16-10.15,107.11-18.34,21.61-41.83,33.4-69.84,36.47-6.21.68-12.44,1.4-18.68,1.65-20.58.84-40.47-3.12-59.91-9.49-15.08-4.94-30.01-10.33-45.09-15.27-13.25-4.34-26.82-7.48-40.85-6.7-7.08.4-14.31,1.41-21.07,3.46-10.06,3.06-16.4,10.8-21.44,19.78-3.17,5.64-7.03,10.73-13.54,13.15-7.01,2.61-13.01.73-16.78-5.73-4.8-8.23-5.87-17.1-3.99-26.31,4.39-21.51,18.43-33.37,39.07-38.28,15.08-3.59,30.27-2.87,45.4-.25,23.1,3.99,44.64,12.35,65.1,23.6Z" fill="#fff"/>
  <path d="M176.44,101.31c8.24.02,14.88,6.8,14.88,15.18-.01,8.55-6.89,15.51-15.29,15.45-8.33-.06-14.83-6.72-14.85-15.19-.02-8.56,6.8-15.46,15.26-15.44Z" fill="#fff"/>
</svg>